<?xml version="1.0" encoding="UTF-8"?>
<!DOCTYPE svg PUBLIC "-//W3C//DTD SVG 1.1//EN" "http://www.w3.org/Graphics/SVG/1.1/DTD/svg11.dtd">
<!-- Creator: CorelDRAW X8 -->
<svg xmlns="http://www.w3.org/2000/svg" xml:space="preserve" width="100%" height="100%" version="1.1" style="shape-rendering:geometricPrecision; text-rendering:geometricPrecision; image-rendering:optimizeQuality; fill-rule:evenodd; clip-rule:evenodd"
viewBox="0 0 3613 2433"
 xmlns:xlink="http://www.w3.org/1999/xlink">
 <defs>
  <style type="text/css">
   <![CDATA[
    .fil0 {fill:#231F20}
   ]]>
  </style>
 </defs>
 <g id="Layer_x0020_1">
  <metadata id="CorelCorpID_0Corel-Layer"/>
  <g id="_1086438400">
   <path class="fil0" d="M0 937c0,48 9,59 35,98l48 72c59,88 137,186 206,267l68 79c7,7 7,9 14,16l116 120c36,37 124,108 167,130 88,44 97,22 175,-43l30 -30c6,-8 6,-10 13,-17 12,-12 19,-17 29,-31 6,-7 24,-28 29,-31 0,11 3,42 5,55 15,111 26,241 182,241 86,0 211,-54 284,-95 93,-52 184,-71 288,-92 67,-14 143,-27 200,-54 46,-21 80,-41 115,-75 25,-23 37,-31 62,-64 35,-46 45,-59 75,-115 8,-15 15,-26 22,-41 7,-14 14,-30 20,-44 12,-30 24,-62 33,-94 49,-175 49,-360 -20,-529 -34,-85 -106,-175 -190,-210 -20,-8 -38,-13 -58,-21 -30,-13 -52,-25 -76,-45 -9,-7 -13,-9 -21,-18 -107,-117 -28,-209 -302,-147 -14,3 -33,7 -46,8 0,-36 -36,-110 -61,-139 -21,-26 -83,-88 -119,-88 -22,0 -34,12 -48,21 -10,7 -11,8 -19,15 -40,36 -91,80 -127,120 -39,44 -62,65 -105,108 -13,13 -24,21 -37,33 -59,60 -174,153 -246,178 -186,64 -467,167 -624,296 -40,33 -117,98 -117,166z"/>
   <path class="fil0" d="M3220 1043l0 0zm393 -397l0 48 0 2c-9,117 -78,477 -152,571 -18,22 -38,35 -66,15 -64,-44 -129,-171 -171,-233 -3,-5 -1,-2 -4,-6 0,15 10,44 14,60 16,62 10,130 1,192 -5,41 -25,209 -52,228 -8,-6 -6,-8 -11,-18 -35,-79 -117,-181 -179,-244l-267 -243c-27,-27 -56,-64 -70,-100 -11,-29 -19,-57 -19,-95l-14 -213c0,-42 -1,-70 8,-105 15,-58 53,-112 116,-112 -3,-26 -45,-112 -71,-139 -29,-30 -51,-20 -58,-46 -14,-54 132,-113 180,-127 97,-27 165,-2 233,58l55 48c41,39 90,91 134,127 48,39 102,71 158,98 35,17 101,58 130,80 67,51 99,90 105,154z"/>
   <path class="fil0" d="M2883 1930c6,24 4,25 4,53 0,154 -73,275 -201,339 -59,30 -148,53 -216,55 -46,1 -85,3 -133,3l-94 7c-13,2 -20,1 -26,10 7,10 34,15 48,18 20,5 35,7 57,10 31,4 65,7 101,8l101 0c156,-5 328,-30 443,-59 33,-8 116,-31 130,-51 -23,-31 -146,-70 -167,-266 -4,-41 -13,-91 -13,-134 63,-30 89,-42 138,-108 48,-64 68,-109 68,-202 0,-107 -106,-126 -213,-126 -93,0 -273,11 -323,87 -22,34 -18,67 -5,107 32,98 141,208 239,241 22,7 35,8 62,8z"/>
  </g>
 </g>
</svg>
